<svg width="172" height="21" viewBox="0 0 172 21" fill="none" xmlns="http://www.w3.org/2000/svg">
<path d="M139.638 18.6247C139.615 18.4637 139.594 18.3084 139.578 18.1546C139.561 17.998 139.552 17.8405 139.552 17.6829C139.553 17.5215 139.562 17.3603 139.578 17.1999C139.594 17.034 139.615 16.8722 139.638 16.712C139.798 16.6895 139.954 16.6726 140.106 16.6613C140.258 16.6492 140.415 16.6444 140.574 16.6444C140.732 16.6444 140.894 16.6492 141.049 16.6613C141.204 16.6734 141.369 16.6895 141.529 16.712C141.552 16.873 141.572 17.034 141.589 17.195C141.622 17.5137 141.622 17.8351 141.589 18.1538C141.572 18.3148 141.552 18.4742 141.529 18.632C141.369 18.6546 141.214 18.6714 141.062 18.6835C140.91 18.6956 140.752 18.7004 140.594 18.7004C140.435 18.7004 140.274 18.6948 140.114 18.6835C139.954 18.6722 139.796 18.6473 139.638 18.6247Z" fill="white"/>
<path d="M148.601 12.8457C148.63 12.5884 148.599 12.3277 148.511 12.0844C148.423 11.8411 148.279 11.6217 148.092 11.4437C147.654 11.1536 147.134 11.0155 146.611 11.0505C146.238 11.0489 145.865 11.0804 145.498 11.1446C145.156 11.2064 144.818 11.2891 144.486 11.3922C144.262 10.9788 144.151 10.5129 144.166 10.0424C144.582 9.90986 145.008 9.81276 145.441 9.7522C145.886 9.68518 146.335 9.6508 146.785 9.64931C147.712 9.58394 148.631 9.86065 149.37 10.4275C149.688 10.7525 149.932 11.1432 150.084 11.5725C150.237 12.0017 150.295 12.4592 150.254 12.9132V18.4008C149.858 18.492 149.375 18.5855 148.808 18.6814C148.235 18.779 147.655 18.828 147.074 18.8277C146.568 18.8334 146.063 18.7819 145.569 18.6742C145.159 18.5889 144.771 18.4198 144.429 18.1773C144.12 17.9524 143.872 17.6527 143.709 17.3059C143.528 16.9037 143.441 16.4655 143.454 16.0244C143.441 15.5923 143.536 15.1638 143.729 14.7774C143.922 14.3911 144.207 14.0591 144.56 13.8112C144.915 13.5593 145.312 13.3739 145.732 13.2637C146.187 13.1431 146.656 13.0831 147.127 13.0853C147.49 13.0853 147.788 13.0925 148.019 13.1094C148.25 13.1263 148.448 13.1464 148.606 13.1697L148.601 12.8457ZM148.601 14.5034C148.432 14.4799 148.216 14.4571 147.954 14.4351C147.694 14.4118 147.474 14.4005 147.292 14.4005C146.729 14.3639 146.168 14.5011 145.684 14.7936C145.499 14.93 145.351 15.1113 145.255 15.3204C145.158 15.5296 145.116 15.7599 145.132 15.9899C145.117 16.2703 145.182 16.5493 145.319 16.7938C145.435 16.9789 145.596 17.1315 145.786 17.2376C145.979 17.3417 146.191 17.4059 146.409 17.4265C146.635 17.4482 146.85 17.4595 147.055 17.4595C147.325 17.4595 147.594 17.445 147.862 17.4161C148.112 17.3932 148.359 17.3507 148.602 17.289L148.601 14.5034Z" fill="white"/>
<path d="M152.632 17.0326C153.304 17.3002 154.019 17.4392 154.742 17.4426C154.993 17.4438 155.244 17.4152 155.49 17.3574C155.709 17.3081 155.919 17.2214 156.11 17.1009C156.279 16.9929 156.424 16.8498 156.535 16.6813C156.642 16.5165 156.698 16.3233 156.695 16.1266C156.702 15.931 156.658 15.7369 156.567 15.5638C156.482 15.4159 156.366 15.2876 156.228 15.1876C156.074 15.0797 155.908 14.9909 155.734 14.9231C155.546 14.8491 155.345 14.7784 155.13 14.71L154.534 14.4874C153.948 14.297 153.408 13.9823 152.953 13.5644C152.783 13.378 152.653 13.1596 152.568 12.922C152.483 12.6844 152.446 12.4322 152.459 12.1801C152.445 11.8287 152.512 11.4788 152.655 11.1579C152.798 10.837 153.013 10.554 153.284 10.3311C153.989 9.82821 154.846 9.58667 155.708 9.6477C156.145 9.64756 156.581 9.69037 157.01 9.77553C157.388 9.84851 157.76 9.94846 158.124 10.0746C158.1 10.3058 158.057 10.5346 157.996 10.7587C157.937 10.9755 157.86 11.1868 157.766 11.3906C157.473 11.2867 157.176 11.1984 156.874 11.1261C156.509 11.0387 156.135 10.9958 155.759 10.9983C155.376 10.9912 154.996 11.0669 154.645 11.2202C154.493 11.2847 154.366 11.395 154.28 11.5358C154.194 11.6766 154.154 11.8408 154.165 12.0057C154.159 12.1791 154.2 12.3508 154.284 12.5025C154.364 12.6413 154.473 12.7608 154.604 12.853C154.749 12.9546 154.906 13.0381 155.072 13.1014C155.246 13.1689 155.438 13.2373 155.642 13.3064L156.39 13.5628C156.655 13.6501 156.914 13.7576 157.163 13.8844C157.399 14.0033 157.612 14.1621 157.794 14.3539C157.975 14.5537 158.119 14.7853 158.218 15.0373C158.423 15.5602 158.454 16.1358 158.308 16.6783C158.161 17.2207 157.843 17.7009 157.402 18.0471C157.063 18.3047 156.679 18.4984 156.271 18.6187C155.796 18.7605 155.303 18.8299 154.808 18.8246C154.329 18.8295 153.851 18.7923 153.379 18.7136C152.992 18.6446 152.611 18.5446 152.239 18.4146C152.263 18.1794 152.312 17.9474 152.384 17.7224C152.459 17.4916 152.542 17.2577 152.632 17.0326Z" fill="white"/>
<path d="M161.034 11.1872H159.932C159.907 11.0836 159.89 10.9783 159.882 10.8721C159.869 10.7554 159.864 10.6381 159.864 10.5208C159.863 10.404 159.869 10.2872 159.882 10.1711C159.89 10.0646 159.907 9.95898 159.932 9.85514H162.686V18.6228C162.562 18.6453 162.423 18.6622 162.27 18.6743C162.118 18.6863 161.978 18.6911 161.853 18.6911C161.727 18.6911 161.607 18.6855 161.453 18.6743C161.298 18.663 161.16 18.6453 161.035 18.6228L161.034 11.1872ZM160.661 7.92249C160.637 7.77565 160.623 7.62742 160.618 7.47872C160.612 7.31794 160.609 7.17534 160.61 7.05099C160.61 6.92639 160.61 6.78411 160.618 6.62494C160.622 6.48179 160.636 6.33913 160.661 6.19804C160.809 6.17473 160.967 6.15784 161.141 6.14579C161.314 6.13373 161.461 6.12891 161.582 6.12891C161.704 6.12891 161.854 6.13533 162.025 6.14579C162.195 6.15624 162.345 6.17473 162.483 6.19804C162.508 6.33906 162.523 6.48176 162.526 6.62494C162.532 6.78572 162.535 6.92639 162.535 7.05099C162.535 7.1756 162.535 7.31954 162.526 7.47872C162.522 7.62745 162.508 7.77572 162.483 7.92249C162.347 7.94581 162.198 7.96186 162.033 7.97392C161.868 7.98598 161.724 7.9908 161.598 7.9908C161.473 7.9908 161.309 7.98517 161.14 7.97392C160.971 7.96266 160.812 7.94581 160.661 7.92249Z" fill="white"/>
<path d="M170.03 12.8457C170.06 12.5883 170.029 12.3276 169.941 12.0842C169.853 11.8408 169.709 11.6215 169.522 11.4436C169.084 11.1538 168.564 11.0157 168.042 11.0505C167.668 11.0489 167.295 11.0804 166.927 11.1446C166.585 11.2064 166.247 11.2892 165.914 11.3922C165.691 10.9785 165.581 10.5128 165.594 10.0424C166.011 9.90982 166.437 9.81271 166.87 9.75216C167.314 9.68514 167.764 9.65076 168.214 9.64926C169.141 9.58407 170.06 9.86075 170.799 10.4275C171.116 10.753 171.359 11.1439 171.511 11.5731C171.663 12.0023 171.72 12.4596 171.679 12.9132V18.4008C171.282 18.4919 170.8 18.5855 170.233 18.6814C169.66 18.779 169.08 18.828 168.498 18.8277C167.993 18.8333 167.488 18.7818 166.994 18.6742C166.584 18.5891 166.196 18.4199 165.854 18.1773C165.544 17.9524 165.297 17.6526 165.134 17.3059C164.953 16.9037 164.866 16.4655 164.878 16.0244C164.866 15.5923 164.96 15.1638 165.153 14.7775C165.346 14.3912 165.632 14.0591 165.984 13.8112C166.339 13.5589 166.737 13.3734 167.158 13.2637C167.613 13.143 168.082 13.083 168.553 13.0852C168.915 13.0852 169.212 13.0925 169.445 13.1094C169.678 13.1263 169.873 13.1464 170.03 13.1697V12.8457ZM170.03 14.5034C169.862 14.4801 169.646 14.4576 169.385 14.4351C169.124 14.4125 168.905 14.4005 168.722 14.4005C168.158 14.3639 167.597 14.501 167.114 14.7936C166.929 14.93 166.781 15.1112 166.685 15.3204C166.588 15.5295 166.546 15.7599 166.562 15.9899C166.546 16.2703 166.611 16.5492 166.749 16.7938C166.865 16.9789 167.026 17.1315 167.216 17.2376C167.409 17.3417 167.62 17.4059 167.838 17.4265C168.065 17.4482 168.28 17.4594 168.484 17.4594C168.754 17.4596 169.024 17.4451 169.292 17.416C169.541 17.3932 169.788 17.3507 170.031 17.289L170.03 14.5034Z" fill="white"/>
<path d="M6.4096 19.9565L3.31201 13.2565L10.0232 10.1212L6.4096 19.9565Z" fill="#1A1A1A"/>
<path d="M0.192017 6.51233L3.31201 13.2573L10.0232 10.122L0.192017 6.51233Z" fill="#4C4C4C"/>
<path d="M19.7888 13.7084L16.6912 7.00757L10.0232 10.122L19.7888 13.7084Z" fill="#A11924"/>
<path d="M13.5936 0.310669L16.6912 7.00823L10.0232 10.1226L13.5936 0.310669Z" fill="#CE0D1D"/>
<path d="M0.192017 6.5123L6.9032 3.37695L10.0232 10.1243L0.192017 6.5123Z" fill="#ECB100"/>
<path d="M13.5936 0.310669L6.92639 3.42267L10.0232 10.1235L13.5936 0.310669Z" fill="#FFDC00"/>
<path d="M6.43201 19.946L13.1224 16.8219L10.0224 10.1228L6.43201 19.946Z" fill="#F88113"/>
<path d="M19.7784 13.6858L13.1128 16.8003L10.0248 10.1237L19.7784 13.6858Z" fill="#FF9F15"/>
<path d="M0 14.8017L3.4488 13.1938L4.98801 16.5189L0 14.8017Z" fill="#1A1A1A"/>
<path d="M0 14.8009L1.89999 9.84143L3.44958 13.1914L0 14.8009Z" fill="#4C4C4C"/>
<path d="M18.1592 10.3696L16.6208 7.04128L19.9808 5.47522L18.1592 10.3696Z" fill="#A11924"/>
<path d="M16.6208 7.04058L15.084 3.71472L19.9776 5.47292L16.6208 7.04058Z" fill="#CE0D1D"/>
<path d="M14.6696 20.1719L13.0024 16.5663L16.2904 15.0308L14.6696 20.1719Z" fill="#FF9F15"/>
<path d="M9.64401 18.1331L13.004 16.5654L14.6712 20.171L9.64401 18.1331Z" fill="#F88113"/>
<path d="M7.00239 3.58283L5.37839 0.0712891L10.2888 2.04892L7.00239 3.58283Z" fill="#FFDC00"/>
<path d="M3.62241 5.1038L5.3824 0.0737305L6.98239 3.53696L3.62241 5.1038Z" fill="#ECB100"/>
<path d="M29.8104 8.85725H27.7744C27.7277 8.61816 27.6946 8.37657 27.6752 8.1337C27.6581 7.91931 27.6496 7.69479 27.6496 7.46004C27.6496 7.24298 27.6584 7.03555 27.6752 6.83457C27.6949 6.60875 27.728 6.38432 27.7744 6.16249H29.8104V5.53785C29.7982 4.81053 29.9197 4.08715 30.1688 3.40418C30.3908 2.80897 30.7436 2.27178 31.2008 1.83253C31.6608 1.39957 32.2058 1.06796 32.8008 0.858969C33.4594 0.628213 34.1529 0.51423 34.8504 0.522117C35.2688 0.518013 35.6872 0.538655 36.1032 0.583992C36.4778 0.633269 36.848 0.712052 37.2104 0.819567C37.1831 1.31727 37.1296 1.81315 37.0504 2.3052C36.9737 2.75314 36.8531 3.19238 36.6904 3.61644C36.508 3.58268 36.3173 3.5449 36.1184 3.5031C35.856 3.45584 35.5896 3.43509 35.3232 3.44117C34.8195 3.4192 34.3226 3.5641 33.9088 3.85359C33.6906 4.08726 33.5245 4.36507 33.4217 4.66841C33.319 4.97176 33.2818 5.29365 33.3128 5.61258V6.1617H36.2936C36.3396 6.40088 36.3724 6.6424 36.392 6.88521C36.408 7.10147 36.4176 7.3266 36.4176 7.55813C36.4176 7.77438 36.408 7.98337 36.392 8.18355C36.3721 8.40956 36.3392 8.63426 36.2936 8.85647H33.3128V19.0624C32.7387 19.1604 32.1575 19.2107 31.5752 19.2127C30.9854 19.2112 30.3968 19.161 29.8152 19.0624L29.8104 8.85725Z" fill="white"/>
<path d="M42.996 19.3511C42.0639 19.3726 41.1376 19.1988 40.276 18.8407C39.5379 18.5227 38.8839 18.0356 38.3664 17.4185C37.8494 16.7897 37.461 16.0647 37.2232 15.2849C36.9603 14.4286 36.8303 13.5368 36.8376 12.6408C36.8312 11.7364 36.9612 10.8362 37.2232 9.97093C37.4563 9.18188 37.8451 8.44804 38.3664 7.81318C38.885 7.19356 39.5383 6.70204 40.276 6.37657C41.1352 6.00904 42.0625 5.83005 42.996 5.85159C43.9328 5.8308 44.8634 6.00973 45.7264 6.37657C46.472 6.70208 47.1345 7.19326 47.664 7.81318C48.19 8.44465 48.5788 9.17962 48.8056 9.97093C49.0584 10.8379 49.1837 11.7374 49.1776 12.6408C49.1847 13.5358 49.0593 14.4269 48.8056 15.2849C48.5741 16.067 48.1856 16.7931 47.664 17.4185C47.1355 18.036 46.4725 18.5226 45.7264 18.8407C44.861 19.198 43.9314 19.3718 42.996 19.3511ZM42.996 16.6572C43.3923 16.6889 43.7896 16.6087 44.143 16.4256C44.4964 16.2425 44.7918 15.9638 44.996 15.621C45.3978 14.6789 45.6051 13.6646 45.6051 12.6396C45.6051 11.6146 45.3978 10.6003 44.996 9.65823C44.7716 9.33856 44.4741 9.0777 44.1285 8.89767C43.7829 8.71765 43.3993 8.62368 43.01 8.62368C42.6207 8.62368 42.2371 8.71765 41.8915 8.89767C41.5459 9.0777 41.2484 9.33856 41.024 9.65823C40.6227 10.6005 40.4159 11.6147 40.4159 12.6396C40.4159 13.6645 40.6227 14.6787 41.024 15.621C41.2243 15.9609 41.5149 16.2379 41.8633 16.421C42.2117 16.6041 42.6039 16.6859 42.996 16.6572Z" fill="white"/>
<path d="M50.74 6.15303C51.907 5.9527 53.0994 5.9527 54.2664 6.15303V12.9865C54.2542 13.5522 54.3079 14.1175 54.4264 14.6707C54.5075 15.0536 54.6778 15.4118 54.9232 15.7158C55.1445 15.9719 55.4319 16.1616 55.7536 16.2641C56.1323 16.378 56.5263 16.4322 56.9216 16.4249C57.4401 16.4361 57.9578 16.3775 58.4608 16.2504V6.15303C59.0351 6.05462 59.6166 6.00433 60.1992 6.00269C60.789 6.00379 61.3777 6.05409 61.9592 6.15303V18.5537C61.2715 18.7772 60.5704 18.9563 59.86 19.0899C58.9642 19.2672 58.053 19.355 57.14 19.352C56.3244 19.3542 55.5101 19.2875 54.7056 19.1526C53.9662 19.0348 53.2646 18.7446 52.6568 18.3053C52.026 17.813 51.5409 17.1569 51.2536 16.408C50.8675 15.3462 50.6903 14.2191 50.732 13.0894L50.74 6.15303Z" fill="white"/>
<path d="M64.1728 6.15308C64.4224 6.10163 64.6528 6.06544 64.8816 6.04052C65.1104 6.0156 65.5704 6.00274 65.8328 6.00274C66.0787 6.00263 66.3243 6.01929 66.568 6.05259C66.808 6.08635 67.2768 6.12735 67.5096 6.17639C67.5576 6.2616 67.4296 7.88232 67.452 7.99809C67.826 7.47083 68.2782 7.00423 68.7928 6.61452C69.3674 6.19211 70.0669 5.9766 70.7784 6.00274C70.9448 6.00274 71.1352 6.01157 71.3504 6.02604C71.5099 6.03407 71.6681 6.05914 71.8224 6.10082C71.8572 6.29125 71.8821 6.48339 71.8968 6.67644C71.9128 6.8935 71.9224 7.11781 71.9224 7.35014C71.9224 7.63072 71.9096 7.93941 71.8832 8.27385C71.8606 8.59209 71.8154 8.90831 71.748 9.22008C71.547 9.18678 71.3437 9.1704 71.14 9.17106H70.7296C70.4133 9.17392 70.0978 9.20318 69.7864 9.25864C69.4218 9.32463 69.08 9.4832 68.7936 9.71929C68.4417 10.0216 68.1722 10.4089 68.0104 10.8448C67.7763 11.5172 67.671 12.2281 67.7 12.9399V19.0779C67.4024 19.1277 67.1048 19.1583 66.8064 19.1792C66.508 19.2001 66.2192 19.2033 65.9376 19.2033C65.656 19.2033 65.3704 19.1936 65.0816 19.1792C64.7928 19.1647 64.4896 19.1277 64.1736 19.0779L64.1728 6.15308Z" fill="white"/>
<path d="M74.668 8.84705H73.0536L78.1448 2.38428V6.15308H81.148C81.1923 6.37524 81.2252 6.59957 81.2464 6.82516C81.2624 7.02614 81.272 7.23357 81.272 7.45063C81.272 7.68377 81.2624 7.90807 81.2464 8.12433C81.2304 8.34059 81.1968 8.58173 81.148 8.84783H78.1416V13.9126C78.1306 14.332 78.1723 14.7513 78.2656 15.1603C78.3272 15.4338 78.4498 15.6897 78.624 15.9087C78.7778 16.0893 78.9817 16.2197 79.2096 16.2834C79.4766 16.3537 79.752 16.3869 80.028 16.3822C80.273 16.383 80.5177 16.3623 80.7592 16.3204C80.9992 16.2794 81.2112 16.24 81.3928 16.2094C81.5097 16.5282 81.5937 16.8582 81.6432 17.1942C81.6884 17.4958 81.7124 17.8001 81.7152 18.1051C81.7152 18.2892 81.7152 18.4419 81.704 18.5681C81.6928 18.6943 81.6832 18.8093 81.6672 18.9307C80.8941 19.114 80.1023 19.206 79.308 19.2048C78.0659 19.2906 76.836 18.9125 75.8544 18.1429C75.4214 17.6858 75.0911 17.1406 74.8857 16.5443C74.6804 15.9479 74.6047 15.3142 74.664 14.686L74.668 8.84705Z" fill="white"/>
<path d="M84.5264 8.84698H82.8616C82.8103 8.62068 82.7732 8.39138 82.7504 8.16042C82.7252 7.93218 82.713 7.70271 82.7136 7.47308C82.7123 7.02859 82.7617 6.58541 82.8608 6.15222H87.9808V19.0521C87.4061 19.15 86.8244 19.2003 86.2416 19.2024C85.6678 19.1996 85.0952 19.1493 84.5296 19.0521L84.5264 8.84698Z" fill="white"/>
<path d="M90.5472 8.84706H88.9312L94.0224 2.38428V6.15308H97.0272C97.072 6.37523 97.1054 6.59956 97.1272 6.82517C97.144 7.02615 97.1512 7.23357 97.1512 7.45063C97.1512 7.68377 97.144 7.90808 97.1272 8.12434C97.1104 8.34059 97.0768 8.58174 97.0272 8.84784H94.0232V13.9126C94.0125 14.332 94.0538 14.7511 94.1464 15.1603C94.2079 15.4345 94.3316 15.6906 94.508 15.9088C94.661 16.0891 94.8641 16.2195 95.0912 16.2834C95.3585 16.3537 95.6341 16.387 95.9104 16.3823C96.1554 16.3831 96.4001 16.3624 96.6416 16.3204L97.276 16.2094C97.3933 16.528 97.4767 16.8581 97.5248 17.1942C97.5709 17.4957 97.5955 17.8001 97.5984 18.1051C97.5984 18.2892 97.5984 18.4419 97.5864 18.5681C97.5744 18.6944 97.5664 18.8093 97.5496 18.9307C96.7767 19.1139 95.9852 19.2059 95.1912 19.2048C93.9493 19.291 92.7195 18.9128 91.7384 18.1429C90.9427 17.4349 90.5458 16.2826 90.548 14.686L90.5472 8.84706Z" fill="white"/>
<path d="M99.4832 6.15303C100.648 5.9531 101.838 5.9531 103.003 6.15303V12.9865C102.99 13.5523 103.044 14.1176 103.163 14.6707C103.244 15.0539 103.414 15.4122 103.66 15.7158C103.881 15.9719 104.169 16.1617 104.49 16.2641C104.869 16.378 105.262 16.4322 105.657 16.4249C106.176 16.4363 106.694 16.3776 107.197 16.2504V6.15303C107.771 6.05453 108.352 6.00424 108.934 6.00269C109.524 6.00362 110.113 6.05392 110.694 6.15303V18.5537C110.008 18.7771 109.307 18.9562 108.598 19.0899C107.702 19.2671 106.791 19.3549 105.878 19.352C105.062 19.354 104.248 19.2873 103.444 19.1526C102.705 19.0345 102.004 18.7443 101.396 18.3053C100.764 17.814 100.279 17.1576 99.9936 16.408C99.607 15.3463 99.4298 14.2191 99.472 13.0894L99.4832 6.15303Z" fill="white"/>
<path d="M121.11 0.819112C121.407 0.770072 121.702 0.7387 121.99 0.719405C122.279 0.700111 122.566 0.695312 122.847 0.695312C123.129 0.695312 123.419 0.704934 123.717 0.719405C124.014 0.733876 124.313 0.770072 124.612 0.819112V18.6367C123.834 18.8691 123.042 19.0483 122.24 19.1729C121.273 19.3085 120.298 19.3709 119.322 19.3595C118.469 19.3625 117.62 19.2412 116.802 18.9993C116.022 18.7696 115.299 18.3785 114.678 17.8513C114.044 17.2956 113.547 16.5993 113.226 15.8173C112.539 13.9749 112.513 11.9492 113.152 10.0893C113.44 9.28062 113.887 8.53852 114.467 7.90738C115.052 7.28266 115.758 6.78548 116.542 6.44666C117.397 6.0806 118.319 5.89797 119.248 5.91044C119.546 5.91044 119.857 5.92303 120.179 5.94823C120.494 5.97245 120.806 6.02624 121.11 6.10897V0.819112ZM121.11 8.82952C120.844 8.76056 120.575 8.70687 120.302 8.66872C120.043 8.6411 119.781 8.62873 119.52 8.63172C119.024 8.61979 118.533 8.73521 118.094 8.96701C117.695 9.18604 117.35 9.49301 117.086 9.86496C116.81 10.2645 116.613 10.7138 116.505 11.1883C116.38 11.7068 116.318 12.2385 116.319 12.772C116.305 13.3597 116.389 13.9457 116.566 14.5061C116.703 14.9325 116.937 15.3212 117.249 15.6421C117.54 15.9248 117.893 16.1345 118.28 16.2539C118.699 16.3803 119.135 16.443 119.572 16.4396C119.829 16.4413 120.085 16.4287 120.341 16.4018C120.602 16.3708 120.86 16.317 121.111 16.241L121.11 8.82952Z" fill="white"/>
<path d="M129.826 13.6891C129.822 14.1069 129.914 14.5201 130.094 14.8966C130.274 15.273 130.539 15.6026 130.866 15.8597C131.605 16.3385 132.473 16.5735 133.351 16.5318C133.93 16.5315 134.507 16.4777 135.076 16.371C135.647 16.2679 136.208 16.1137 136.752 15.9103C136.953 16.2907 137.112 16.6925 137.225 17.1082C137.36 17.596 137.435 18.0988 137.446 18.6051C136.048 19.1233 134.567 19.3771 133.077 19.3536C132.033 19.3783 130.993 19.2093 130.01 18.8552C129.218 18.5624 128.505 18.0884 127.926 17.4708C127.379 16.865 126.972 16.1448 126.734 15.3621C126.216 13.6192 126.22 11.7613 126.746 10.0208C126.991 9.22506 127.392 8.48689 127.926 7.85013C128.458 7.22646 129.119 6.72776 129.863 6.38937C130.712 6.01451 131.632 5.83092 132.558 5.85154C133.377 5.83712 134.19 5.99914 134.941 6.32666C135.617 6.62826 136.223 7.0705 136.717 7.62422C137.216 8.19316 137.593 8.86038 137.822 9.58341C138.074 10.3688 138.2 11.1898 138.194 12.0153C138.194 12.3312 138.182 12.644 138.157 12.9511C138.132 13.2582 138.102 13.5058 138.07 13.6891H129.826ZM134.866 11.2162C134.867 10.516 134.635 9.83563 134.207 9.28272C133.999 9.03744 133.737 8.84363 133.442 8.71623C133.146 8.58883 132.826 8.53123 132.506 8.54793C132.16 8.52369 131.814 8.57352 131.489 8.6941C131.164 8.81468 130.868 9.00326 130.622 9.24734C130.153 9.79914 129.882 10.4925 129.851 11.217L134.866 11.2162Z" fill="white"/>
<path d="M87.728 1.48295C87.712 1.20274 87.6789 0.923782 87.6288 0.64766C87.3488 0.597816 87.0424 0.560287 86.7096 0.535097C86.4072 0.512587 86.1256 0.499726 85.8632 0.497314H85.8424C85.58 0.497314 85.2984 0.512587 84.9944 0.535097C84.664 0.560823 84.3544 0.597816 84.076 0.64766C84.0268 0.923917 83.9937 1.20282 83.9768 1.48295C83.9608 1.7571 83.9504 2.0369 83.9504 2.31908C83.9504 2.58599 83.9608 2.86011 83.9768 3.14069C83.9931 3.42593 84.0262 3.70993 84.076 3.99124C84.376 4.04306 84.679 4.07613 84.9832 4.09016C85.2877 4.10678 85.5741 4.11504 85.8424 4.11504H85.8632C86.132 4.11504 86.4184 4.10704 86.7232 4.09016C87.0266 4.07621 87.3287 4.04315 87.628 3.99124C87.6787 3.71007 87.7118 3.42601 87.7272 3.14069C87.7448 2.85984 87.7536 2.58599 87.7536 2.31908C87.7528 2.03851 87.7456 1.75871 87.728 1.48295Z" fill="white"/>
</svg>
