<svg width="143" height="96" viewBox="0 0 143 96" fill="none" xmlns="http://www.w3.org/2000/svg">
<path d="M105.02 91.336C110.436 91.3278 115.632 89.1922 119.489 85.3894C123.345 81.5866 125.553 76.4209 125.638 71.0054C125.722 65.5899 123.675 60.358 119.939 56.437C116.203 52.516 111.075 50.2198 105.662 50.043C105.583 47.4582 104.812 44.942 103.429 42.7565C102.047 40.571 100.104 38.7962 97.8022 37.617C95.5007 36.4378 92.925 35.8974 90.3436 36.052C87.7622 36.2067 85.2695 37.0508 83.1253 38.4963C80.4948 32.4938 75.8788 27.5793 70.0527 24.5783C64.2266 21.5773 57.5453 20.6726 51.1309 22.0161C44.7165 23.3597 38.9598 26.8696 34.8278 31.9564C30.6957 37.0433 28.4401 43.3971 28.4396 49.9507C28.4396 50.2831 28.4474 50.6136 28.4587 50.9433C23.7349 52.4029 19.6913 55.5083 17.0623 59.6955C14.4332 63.8826 13.3932 68.8739 14.131 73.7626C14.8689 78.6514 17.3356 83.1133 21.0833 86.3381C24.831 89.5629 29.6109 91.3366 34.5551 91.337L105.02 91.336Z" fill="#EAEAE8"/>
<path d="M110.507 33.5731C108.84 33.5722 107.239 32.9158 106.051 31.7455C104.863 30.5752 104.183 28.9848 104.157 27.3174C104.131 25.6499 104.761 24.0391 105.912 22.8325C107.063 21.6258 108.643 20.9199 110.309 20.8671C110.334 20.0718 110.571 19.2977 110.997 18.6253C111.422 17.9529 112.02 17.4069 112.728 17.0441C113.437 16.6814 114.229 16.5152 115.023 16.5628C115.817 16.6104 116.584 16.8701 117.244 17.3149C118.054 15.4678 119.474 13.9556 121.267 13.0321C123.059 12.1086 125.115 11.8302 127.089 12.2436C129.063 12.657 130.834 13.737 132.105 15.3023C133.377 16.8675 134.071 18.8226 134.071 20.8392C134.071 20.9413 134.069 21.0432 134.065 21.1447C135.519 21.5939 136.763 22.5494 137.571 23.8378C138.38 25.1262 138.7 26.6619 138.473 28.1661C138.246 29.6703 137.487 31.0432 136.334 32.0355C135.181 33.0277 133.711 33.5736 132.189 33.5738L110.507 33.5731Z" fill="#EAEAE8"/>
<path d="M4.67892 79.3446H4.67719C4.68747 79.3716 4.69776 79.3968 4.70805 79.4233" stroke="#00EDFF" stroke-miterlimit="10"/>
<path d="M50.5384 62.0758L50.4783 61.9178" stroke="#231F20" stroke-miterlimit="10"/>
<path d="M6.01874 76.4829L2.40786 77.8578C1.07804 78.3641 0.410461 79.8526 0.91679 81.1824C1.42312 82.5123 2.91162 83.1798 4.24144 82.6735L7.85232 81.2987C9.18215 80.7923 9.84972 79.3038 9.34339 77.974C8.83706 76.6442 7.34857 75.9766 6.01874 76.4829Z" fill="#0F4AB2"/>
<path d="M46.6554 70.4292C50.6062 70.4292 53.8089 67.2265 53.8089 63.2758C53.8089 59.325 50.6062 56.1223 46.6554 56.1223C42.7047 56.1223 39.502 59.325 39.502 63.2758C39.502 67.2265 42.7047 70.4292 46.6554 70.4292Z" fill="#0F4AB2"/>
<path d="M21.2296 78.3119L14.5936 80.8386L20.3687 96.0064L27.0047 93.4797L21.2296 78.3119Z" fill="#0F4AB2"/>
<path d="M40.6661 40.8817C40.6661 40.8817 40.813 49.5051 30.5973 57.1877C20.3815 64.8703 7.53244 68.7962 7.53244 68.7962C7.53244 68.7962 1.40639 70.5336 4.67764 79.3444H4.67597C4.68626 79.3713 4.69654 79.3966 4.70683 79.423C4.71712 79.4495 4.72591 79.4755 4.73596 79.5022H4.73769C8.15079 88.259 13.8824 85.4844 13.8824 85.4844C13.8824 85.4844 26.0916 79.8743 38.8302 78.8245C51.5688 77.7748 57.1911 84.3136 57.1911 84.3136L58.7705 83.7127L50.5374 62.0756L50.4774 61.9178L42.2445 40.2807L40.6661 40.8817Z" fill="#0F4AB2"/>
<path d="M13.8834 85.4848C13.8834 85.4848 8.15078 88.2593 4.73867 79.5026H4.737C4.72695 79.4757 4.71761 79.45 4.70781 79.4235C4.69801 79.397 4.68724 79.3716 4.67695 79.3449H4.67868C1.40743 70.5341 7.53348 68.7967 7.53348 68.7967L12.693 66.8336L19.0111 83.4383L13.8834 85.4848Z" fill="#F9C800"/>
<path d="M40.6661 40.8817L42.2455 40.2807L50.4784 61.9178L50.5386 62.0758L58.7715 83.7129L57.1921 84.3139L40.6661 40.8817Z" fill="#F9C800"/>
<path d="M137.053 70.4314C137.053 73.1545 136.246 75.8164 134.733 78.0805C133.22 80.3447 131.07 82.1093 128.554 83.1514C126.038 84.1935 123.27 84.4661 120.599 83.9349C117.928 83.4037 115.475 82.0924 113.55 80.1669C111.624 78.2414 110.313 75.7882 109.782 73.1174C109.25 70.4467 109.523 67.6784 110.565 65.1627C111.607 62.6469 113.372 60.4966 115.636 58.9838C117.9 57.4709 120.562 56.6634 123.285 56.6634C126.937 56.6634 130.439 58.114 133.021 60.696C135.603 63.278 137.053 66.7799 137.053 70.4314Z" fill="#DA2629"/>
<path d="M123.325 80.1044C128.668 80.0825 132.981 75.7339 132.959 70.3917C132.937 65.0494 128.588 60.7364 123.246 60.7583C117.904 60.7802 113.591 65.1287 113.613 70.471C113.635 75.8133 117.983 80.1263 123.325 80.1044Z" fill="white"/>
<path d="M130.086 71.0448C130.426 67.2886 127.656 63.9686 123.9 63.6291C120.144 63.2897 116.824 66.0595 116.484 69.8157C116.145 73.5718 118.915 76.8919 122.671 77.2313C126.427 77.5707 129.747 74.8009 130.086 71.0448Z" fill="#DA2629"/>
<path d="M126.543 70.4317C126.543 71.0758 126.352 71.7054 125.994 72.241C125.636 72.7765 125.127 73.1939 124.532 73.4404C123.937 73.6868 123.282 73.7513 122.65 73.6256C122.019 73.4999 121.438 73.1897 120.983 72.7342C120.527 72.2787 120.217 71.6984 120.092 71.0667C119.966 70.4349 120.03 69.7801 120.277 69.185C120.523 68.5899 120.941 68.0813 121.477 67.7235C122.012 67.3656 122.642 67.1746 123.286 67.1746C123.714 67.1746 124.137 67.2589 124.532 67.4226C124.927 67.5862 125.286 67.8262 125.589 68.1286C125.891 68.4311 126.131 68.7901 126.295 69.1853C126.459 69.5804 126.543 70.004 126.543 70.4317Z" fill="white"/>
<path d="M100.681 67.8993L101.71 69.7817C101.579 69.9344 101.5 70.124 101.484 70.3239C101.467 70.5239 101.514 70.7239 101.617 70.8959L100.444 72.7578C100.283 73.0128 100.398 73.2308 100.699 73.2428L105.767 73.443C105.935 73.4399 106.1 73.4017 106.253 73.3308C106.405 73.2599 106.54 73.1579 106.651 73.0314L108.085 71.1806L122.324 70.7151C122.855 70.7151 123.286 70.89 123.285 70.3587C123.284 69.8273 122.853 70.0052 122.322 70.0061L108.252 69.6066L107.152 67.8829C107.054 67.748 106.929 67.6365 106.783 67.5565C106.637 67.4765 106.475 67.4301 106.309 67.4206L100.965 67.4184C100.905 67.4075 100.843 67.4153 100.788 67.4406C100.733 67.4659 100.686 67.5075 100.655 67.5599C100.625 67.6122 100.61 67.6728 100.615 67.7335C100.619 67.7942 100.642 67.8521 100.681 67.8993Z" fill="#2F7AFF"/>
<path d="M84.8786 7.12776H89.152C90.1771 7.12951 91.1596 7.53779 91.884 8.26302C92.6084 8.98826 93.0156 9.97123 93.0162 10.9963V11.2555C93.0151 12.2797 92.6075 13.2616 91.883 13.9856C91.1585 14.7096 90.1763 15.1165 89.152 15.1169H87.7688L88.6363 17.4116L85.3313 15.1169H84.8786C83.8546 15.1164 82.8726 14.7095 82.1486 13.9854C81.4245 13.2613 81.0176 12.2794 81.0172 11.2555V10.9963C81.0173 9.97157 81.424 8.98879 82.1479 8.26355C82.8718 7.5383 83.8539 7.12984 84.8786 7.12776Z" fill="#2F7AFF"/>
<path d="M78.1587 0.000244141H71.5241C69.9316 0.00257039 68.4049 0.635651 67.2781 1.76094C66.1513 2.88622 65.5162 4.41206 65.5117 6.00451V6.40702C65.5157 8.00081 66.1502 9.52827 67.2768 10.6557C68.4033 11.7831 69.9303 12.4189 71.5241 12.424H73.6716L72.3242 15.9866L77.4553 12.424H78.1582C78.7773 12.4245 79.3926 12.3285 79.9821 12.1394C79.8787 11.7582 79.8265 11.365 79.827 10.9701V10.7109C79.8261 10.1126 79.9465 9.52041 80.181 8.97003C80.6381 7.89766 81.493 7.04417 82.5662 6.5888C83.0745 6.37291 83.6187 6.25401 84.1708 6.23823V6.00451C84.1663 4.4121 83.5312 2.8863 82.4045 1.76102C81.2777 0.635744 79.7511 0.00263512 78.1587 0.000244141ZM70.1627 7.16157C69.9266 7.16161 69.6957 7.09164 69.4994 6.96049C69.303 6.82935 69.15 6.64292 69.0596 6.42478C68.9692 6.20665 68.9455 5.96661 68.9915 5.73502C69.0376 5.50343 69.1513 5.29069 69.3182 5.12371C69.4852 4.95673 69.6979 4.84301 69.9295 4.79692C70.1611 4.75084 70.4011 4.77447 70.6193 4.86482C70.8374 4.95516 71.0239 5.10818 71.155 5.3045C71.2862 5.50083 71.3562 5.73165 71.3562 5.96777C71.3562 6.2843 71.2304 6.58785 71.0066 6.81167C70.7828 7.03549 70.4792 7.16125 70.1627 7.16132V7.16157ZM74.3656 7.16157C74.1295 7.16157 73.8987 7.09155 73.7024 6.96038C73.506 6.8292 73.353 6.64275 73.2627 6.42462C73.1723 6.20648 73.1487 5.96644 73.1947 5.73487C73.2408 5.5033 73.3545 5.29058 73.5215 5.12363C73.6884 4.95667 73.9011 4.84297 74.1327 4.79691C74.3643 4.75084 74.6043 4.77449 74.8225 4.86484C75.0406 4.9552 75.227 5.10821 75.3582 5.30453C75.4894 5.50085 75.5594 5.73166 75.5594 5.96777C75.5594 6.12454 75.5285 6.27977 75.4684 6.4246C75.4084 6.56942 75.3205 6.70101 75.2096 6.81184C75.0987 6.92267 74.9671 7.01058 74.8222 7.07054C74.6774 7.13051 74.5221 7.16135 74.3654 7.16132L74.3656 7.16157ZM78.5685 7.16157C78.3324 7.16157 78.1016 7.09155 77.9053 6.96038C77.709 6.8292 77.556 6.64275 77.4656 6.42462C77.3753 6.20648 77.3516 5.96644 77.3977 5.73487C77.4437 5.5033 77.5575 5.29058 77.7244 5.12363C77.8914 4.95667 78.104 4.84297 78.3356 4.79691C78.5672 4.75084 78.8073 4.77449 79.0254 4.86484C79.2435 4.9552 79.4299 5.10821 79.5611 5.30453C79.6923 5.50085 79.7623 5.73166 79.7623 5.96777C79.7623 6.12454 79.7314 6.27977 79.6713 6.4246C79.6113 6.56942 79.5234 6.70101 79.4125 6.81184C79.3016 6.92267 79.17 7.01058 79.0252 7.07054C78.8803 7.13051 78.725 7.16135 78.5683 7.16132L78.5685 7.16157Z" fill="#00BFB3"/>
<path d="M142.58 32.0202C142.579 31.0174 142.312 30.0329 141.804 29.1683C141.296 28.3036 140.566 27.5903 139.69 27.1019C138.815 26.6136 137.824 26.3679 136.822 26.3903C135.819 26.4126 134.841 26.7022 133.988 27.2292C133.135 27.7561 132.438 28.5013 131.969 29.3877C131.5 30.2741 131.276 31.2696 131.321 32.2714C131.365 33.2731 131.677 34.2448 132.222 35.0861C132.768 35.9274 133.529 36.6077 134.425 37.0568V38.3434C134.423 38.4874 134.477 38.6266 134.578 38.7302C134.678 38.8338 134.815 38.8935 134.959 38.8961H139.118C139.262 38.8935 139.399 38.8338 139.499 38.7302C139.599 38.6266 139.654 38.4874 139.652 38.3434V36.9617C140.538 36.4766 141.278 35.7618 141.793 34.8924C142.308 34.0229 142.58 33.0308 142.58 32.0202Z" fill="#FDD048"/>
<path d="M139.64 37.5443H134.425V42.6468H139.64V37.5443Z" fill="white"/>
<path d="M134.161 42.4714C134.367 43.5248 135.568 44.3332 137.019 44.3332C138.47 44.3332 139.671 43.5248 139.877 42.4714H134.161Z" fill="#929497"/>
<path d="M140.572 38.0117C140.572 38.2697 140.283 38.4789 139.927 38.4789H134.161C133.805 38.4789 133.516 38.2699 133.516 38.0117C133.516 37.7537 133.805 37.5443 134.161 37.5443H139.927C140.283 37.5443 140.572 37.7537 140.572 38.0117Z" fill="#929497"/>
<path d="M140.547 39.5781C140.547 39.8363 140.258 40.0453 139.902 40.0453H134.136C133.78 40.0453 133.491 39.8363 133.491 39.5781C133.491 39.3201 133.78 39.1109 134.136 39.1109H139.902C140.258 39.1109 140.547 39.3201 140.547 39.5781Z" fill="#929497"/>
<path d="M140.607 41.2344C140.607 41.4927 140.318 41.7016 139.962 41.7016H134.196C133.84 41.7016 133.551 41.4927 133.551 41.2344C133.551 40.9765 133.84 40.7673 134.196 40.7673H139.962C140.318 40.7673 140.607 40.9765 140.607 41.2344H140.607Z" fill="#929497"/>
</svg>
