<svg width="108" height="96" viewBox="0 0 108 96" fill="none" xmlns="http://www.w3.org/2000/svg">
<mask id="mask0_157_29" style="mask-type:alpha" maskUnits="userSpaceOnUse" x="0" y="0" width="108" height="96">
<rect width="108" height="96" fill="#C4C4C4"/>
</mask>
<g mask="url(#mask0_157_29)">
<path d="M102.366 0H13.3573V62.1167H102.366V0Z" fill="#F2F2F2"/>
<path d="M20.5676 8.19055C21.6517 8.19055 22.5305 7.31482 22.5305 6.23455C22.5305 5.15428 21.6517 4.27855 20.5676 4.27855C19.4836 4.27855 18.6048 5.15428 18.6048 6.23455C18.6048 7.31482 19.4836 8.19055 20.5676 8.19055Z" fill="#E6E6E6"/>
<path d="M27.1919 8.19055C28.2759 8.19055 29.1547 7.31482 29.1547 6.23455C29.1547 5.15428 28.2759 4.27855 27.1919 4.27855C26.1078 4.27855 25.229 5.15428 25.229 6.23455C25.229 7.31482 26.1078 8.19055 27.1919 8.19055Z" fill="#E6E6E6"/>
<path d="M33.816 8.19055C34.9001 8.19055 35.7789 7.31482 35.7789 6.23455C35.7789 5.15428 34.9001 4.27855 33.816 4.27855C32.732 4.27855 31.8532 5.15428 31.8532 6.23455C31.8532 7.31482 32.732 8.19055 33.816 8.19055Z" fill="#E6E6E6"/>
<path d="M64.5605 12.0432H19.0821V15.2126H64.5605V12.0432Z" fill="#E6E6E6"/>
<path d="M48.6591 18.223H19.0821V21.3924H48.6591V18.223Z" fill="#E6E6E6"/>
<path d="M95.4094 12.0432H75.6916V15.2126H95.4094V12.0432Z" fill="#E6E6E6"/>
<path d="M88.5151 18.223H75.6916V21.3924H88.5151V18.223Z" fill="#E6E6E6"/>
<path d="M76.0094 25.5121H0V43.8937H76.0094V25.5121Z" fill="white"/>
<path d="M9.97089 34.4975H4.51746V39.9319H9.97089V34.4975Z" fill="#DA2529"/>
<path d="M15.4244 34.4975H9.97092V39.9319H15.4244V34.4975Z" fill="#0F4AB2"/>
<path d="M68.854 38.1892H22.3741V39.9322H68.854V38.1892Z" fill="#F2F2F2"/>
<path d="M68.854 34.8613H22.3741V36.6043H68.854V34.8613Z" fill="#F2F2F2"/>
<path d="M58.9947 38.1892H22.3741V39.9322H58.9947V38.1892Z" fill="#32C2CC"/>
<path d="M41.8212 34.8613H22.3741V36.6043H41.8212V34.8613Z" fill="#E82D37"/>
<path d="M9.97089 29.0631H4.51746V34.4975H9.97089V29.0631Z" fill="#FFF000"/>
<path d="M71.5768 28.0109L73.3107 28.9339L71.5768 29.8568V28.0109Z" fill="#E6E6E6"/>
<path d="M95.0915 45.9538H19.0821V58.7892H95.0915V45.9538Z" fill="white"/>
<path d="M90.6588 48.4525L92.3928 49.3754L90.6588 50.2993V48.4525Z" fill="#E6E6E6"/>
<path d="M42.6081 27.9546H19.3978V29.4671H42.6081V27.9546Z" fill="#E6E6E6"/>
<path d="M61.6898 48.396H38.4795V49.9085H61.6898V48.396Z" fill="#E6E6E6"/>
<path d="M30.908 48.6261C28.9648 48.6262 27.1011 49.3955 25.7271 50.7647C24.3531 52.1339 23.5814 53.9909 23.5813 55.9272H30.908V48.6261Z" fill="#2F7AFF"/>
<path d="M35.3002 55.928C35.3002 54.7876 34.8459 53.6937 34.0367 52.8873C33.2275 52.0809 32.1297 51.628 30.9853 51.6279V55.928H35.3002Z" fill="#DA2529"/>
<path d="M43.2437 53.1971L41.8093 51.7675C41.7159 51.6745 41.5894 51.6222 41.4574 51.6223C41.3254 51.6223 41.1988 51.6747 41.1055 51.7678C41.0122 51.8608 40.9597 51.9869 40.9598 52.1185C40.9599 52.25 41.0124 52.3762 41.1058 52.4692L41.6912 53.0532H41.677H39.1844C39.0525 53.0532 38.926 53.1054 38.8328 53.1983C38.7395 53.2913 38.6871 53.4173 38.6871 53.5487C38.6871 53.6802 38.7395 53.8062 38.8328 53.8991C38.926 53.9921 39.0525 54.0443 39.1844 54.0443H41.677C41.6817 54.0446 41.6865 54.0446 41.6912 54.0443L41.1058 54.628C41.0595 54.6741 41.0227 54.7287 40.9977 54.7889C40.9726 54.8491 40.9598 54.9136 40.9598 54.9787C40.9598 55.0439 40.9727 55.1084 40.9977 55.1686C41.0226 55.2288 41.0593 55.2836 41.1055 55.3297C41.1517 55.3758 41.2065 55.4122 41.2669 55.4372C41.3273 55.4621 41.392 55.4752 41.4574 55.4752C41.5228 55.4752 41.5875 55.4624 41.6479 55.4375C41.7083 55.4126 41.7631 55.3761 41.8093 55.33L43.2437 53.9007C43.2902 53.8545 43.3273 53.7995 43.3524 53.7392C43.3776 53.6788 43.3906 53.6141 43.3906 53.5487C43.3906 53.4834 43.3776 53.4187 43.3524 53.3583C43.3273 53.2979 43.2902 53.2432 43.2437 53.1971ZM42.1743 53.5617C42.1743 53.5568 42.1743 53.5525 42.1743 53.5478C42.1743 53.5432 42.1743 53.5383 42.1743 53.5336L42.1885 53.5478L42.1743 53.5617Z" fill="#0F4AB2"/>
<path d="M88.9199 93.0803C88.9199 93.0803 83.484 84.7302 76.0177 85.0322C69.7623 85.2848 65.5169 83.6288 60.0692 78.197C54.6215 72.7653 52.2067 68.2639 52.2067 68.2639C52.2067 68.2639 53.6914 65.3458 57.5656 68.0099C61.4399 70.6741 63.4565 75.0168 66.4471 75.084C69.4378 75.1512 69.5525 71.8006 66.7894 67.1157C64.0264 62.4309 52.7139 46.6316 54.1016 44.7743C55.4894 42.9171 57.217 41.1918 68.2026 57.9607C69.6729 56.7036 70.5024 55.9566 72.0841 56.6527C73.0991 54.9668 76.0619 54.4824 76.4352 55.1907C77.7545 53.9918 79.4508 53.2118 82.9243 56.9822C86.3978 60.7526 88.7788 63.7502 90.669 64.994C92.5591 66.2379 100.437 76.8808 101.369 82.2534C97.5823 88.1746 94.6211 89.7629 88.9199 93.0803Z" fill="#F7DBB2"/>
<path d="M125.984 103.243L104.582 117.64L98.0422 106.975C98.0422 106.975 96.0174 106.549 94.4056 101.495C92.7938 96.4418 88.7311 97.5263 86.7764 95.9753C85.7345 95.1374 84.9911 93.987 84.6563 92.694C84.3215 91.401 84.4129 90.0342 84.9171 88.7957C86.5017 90.0142 86.7272 90.2501 87.1998 90.9459C88.2795 90.3064 92.7217 91.4108 100.904 80.4478L100.494 79.3879C100.494 79.3879 103.895 76.6064 103.772 80.8608C103.724 82.5147 121.81 101.964 125.984 103.243Z" fill="#929497"/>
</g>
</svg>
