<svg width="100" height="96" viewBox="0 0 100 96" fill="none" xmlns="http://www.w3.org/2000/svg">
<path d="M30.0832 0H18.4809V11.6023H30.0832V0Z" fill="#D3D3D3"/>
<path d="M42.7666 0H31.1643V11.6023H42.7666V0Z" fill="#D3D3D3"/>
<path d="M55.4502 0H43.8479V11.6023H55.4502V0Z" fill="#D3D3D3"/>
<path d="M68.1336 0H56.5313V11.6023H68.1336V0Z" fill="#D3D3D3"/>
<path d="M80.8169 0H69.2146V11.6023H80.8169V0Z" fill="#D3D3D3"/>
<path d="M30.0832 12.6818H18.4809V24.2841H30.0832V12.6818Z" fill="#D3D3D3"/>
<path d="M42.7666 12.6818H31.1643V24.2841H42.7666V12.6818Z" fill="#D3D3D3"/>
<path d="M55.4502 12.6818H43.8479V24.2841H55.4502V12.6818Z" fill="#D3D3D3"/>
<path d="M68.1336 12.6818H56.5313V24.2841H68.1336V12.6818Z" fill="#D3D3D3"/>
<path d="M80.8169 12.6818H69.2146V24.2841H80.8169V12.6818Z" fill="#D3D3D3"/>
<path d="M30.0832 25.3633H18.4809V36.9656H30.0832V25.3633Z" fill="#D3D3D3"/>
<path d="M42.7666 25.3633H31.1643V36.9656H42.7666V25.3633Z" fill="#D3D3D3"/>
<path d="M55.4502 25.3633H43.8479V36.9656H55.4502V25.3633Z" fill="#D3D3D3"/>
<path d="M68.1336 25.3633H56.5313V36.9656H68.1336V25.3633Z" fill="#D3D3D3"/>
<path d="M80.8169 25.3633H69.2146V36.9656H80.8169V25.3633Z" fill="#D3D3D3"/>
<path d="M30.0832 38.045H18.4809V49.6473H30.0832V38.045Z" fill="#D3D3D3"/>
<path d="M42.7666 38.045H31.1643V49.6473H42.7666V38.045Z" fill="#D3D3D3"/>
<path d="M55.4502 38.045H43.8479V49.6473H55.4502V38.045Z" fill="#D3D3D3"/>
<path d="M68.1336 38.045H56.5313V49.6473H68.1336V38.045Z" fill="#D3D3D3"/>
<path d="M80.8169 38.045H69.2146V49.6473H80.8169V38.045Z" fill="#D3D3D3"/>
<path d="M30.0832 50.7266H18.4809V62.3289H30.0832V50.7266Z" fill="#D3D3D3"/>
<path d="M42.7666 50.7266H31.1643V62.3289H42.7666V50.7266Z" fill="#D3D3D3"/>
<path d="M55.4502 50.7266H43.8479V62.3289H55.4502V50.7266Z" fill="#D3D3D3"/>
<path d="M68.1336 50.7266H56.5313V62.3289H68.1336V50.7266Z" fill="#D3D3D3"/>
<path d="M80.8169 50.7266H69.2146V62.3289H80.8169V50.7266Z" fill="#D3D3D3"/>
<path d="M99.311 17.8922H36.982V80.2213H99.311V17.8922Z" fill="#EBEBEA"/>
<path d="M69.2149 23.8346H42.2434V25.3633H69.2149V23.8346Z" fill="#DA2629"/>
<path d="M94.0243 28.6095H42.2434V30.4842H94.0243V28.6095Z" fill="#2F7AFF"/>
<path d="M94.0243 68.1919H42.2434V70.0666H94.0243V68.1919Z" fill="#DA2629"/>
<path d="M54.4891 73.1398H42.2434V75.0145H54.4891V73.1398Z" fill="#D3D3D3"/>
<path d="M94.0243 33.5572H42.2434V35.4319H94.0243V33.5572Z" fill="#FDD048"/>
<path d="M58.2717 38.5025H42.2434V40.382H58.2717V38.5025Z" fill="#D3D3D3"/>
<path d="M76.148 38.5025H60.1197V40.382H76.148V38.5025Z" fill="#D3D3D3"/>
<path d="M94.0242 38.5025H77.9959V40.382H94.0242V38.5025Z" fill="#D3D3D3"/>
<path d="M76.148 63.2418H42.2434V65.1213H76.148V63.2418Z" fill="#2F7AFF"/>
<path d="M94.0242 63.2418H77.9959V65.1213H94.0242V63.2418Z" fill="#0F4AB2"/>
<path d="M54.4891 58.1517H42.2434V60.3155H54.4891V58.1517Z" fill="#D3D3D3"/>
<path d="M68.1465 58.1517H55.9008V60.3155H68.1465V58.1517Z" fill="#D3D3D3"/>
<path d="M94.0243 43.4529H42.2434V45.3276H94.0243V43.4529Z" fill="#00BFB3"/>
<path d="M94.0243 53.3485H42.2434V55.2232H94.0243V53.3485Z" fill="#F16522"/>
<path d="M76.148 48.4006H42.2434V50.2753H76.148V48.4006Z" fill="#0F4AB2"/>
<path d="M62.3291 33.6709H0V96H62.3291V33.6709Z" fill="#F8F8F8"/>
<path d="M32.4293 39.462H5.41276V59.6942H32.4293V39.462Z" fill="#E4E4E4"/>
<path d="M30.4787 41.2276H7.36312V57.9287H30.4787V41.2276Z" fill="white"/>
<path d="M7.36311 52.584L15.2832 47.1541L21.6667 52.584L26.2162 50.1258L30.4787 52.584V57.9286H7.36221L7.36311 52.584Z" fill="#00BFB3"/>
<path d="M25.0138 47.3232C25.228 46.0018 24.3304 44.7571 23.0091 44.5429C21.6878 44.3287 20.443 45.2262 20.2288 46.5475C20.0146 47.8688 20.9121 49.1136 22.2334 49.3278C23.5548 49.542 24.7996 48.6445 25.0138 47.3232Z" fill="#F16522"/>
<path d="M55.8766 59.4974H54.2995V59.2547H55.6341V58.3377H55.8768L55.8766 59.4974ZM52.8435 59.4974H51.3875V59.2547H52.8435V59.4974ZM49.9316 59.4974H48.4758V59.2547H49.9316V59.4974ZM47.0198 59.4974H45.5641V59.2547H47.0198V59.4974ZM44.1082 59.4974H42.6522V59.2547H44.1082V59.4974ZM41.1964 59.4974H39.7402V59.2547H41.1964V59.4974ZM38.2845 59.4974H36.8286V59.2547H38.2845V59.4974ZM35.9622 58.9077H35.7195V57.4518H35.9622V58.9077ZM55.8763 56.8819H55.6336V55.426H55.8763V56.8819ZM35.9622 55.9961H35.7195V54.5401H35.9622V55.9961ZM55.8763 53.9703H55.6336V52.5145H55.8763V53.9703ZM35.9622 53.0843H35.7195V51.6284H35.9622V53.0843ZM55.8763 51.0585H55.6336V49.6028H55.8763V51.0585ZM35.9622 50.1726H35.7195V48.7167H35.9622V50.1726ZM55.8763 48.1468H55.6336V46.6909H55.8763V48.1468ZM35.9622 47.2612H35.7195V45.8052H35.9622V47.2612ZM55.8763 45.2354H55.6336V43.7794H55.8763V45.2354ZM35.9622 44.3494H35.7195V42.8935H35.9622V44.3494ZM55.8763 42.3236H55.6336V40.8677H55.8763V42.3236ZM35.9622 41.4378H35.7195V39.9818H35.9622V41.4378ZM55.704 39.584H54.2482V39.3413H55.704V39.584ZM52.7923 39.584H51.3366V39.3413H52.7923V39.584ZM49.8806 39.584H48.4246V39.3413H49.8806V39.584ZM46.9689 39.584H45.5129V39.3413H46.9689V39.584ZM44.0571 39.584H42.6012V39.3413H44.0571V39.584ZM41.1455 39.584H39.6895V39.3413H41.1455V39.584ZM38.2337 39.584H36.7778V39.3413H38.2337V39.584Z" fill="#0F4AB2"/>
<path d="M55.7554 74.4862H54.2995V74.2435H55.6341V72.8159H55.8768V74.2719H55.7554V74.4862ZM52.8435 74.4862H51.3875V74.2435H52.8435V74.4862ZM49.9318 74.4862H48.4758V74.2435H49.9318V74.4862ZM47.0201 74.4862H45.5641V74.2435H47.0201V74.4862ZM44.1081 74.4862H42.6522V74.2435H44.1081V74.4862ZM41.1967 74.4862H39.7407V74.2435H41.1967V74.4862ZM38.2847 74.4862H36.8288V74.2435H38.2847V74.4862ZM35.3728 74.4862H33.9168V74.2435H35.3728V74.4862ZM32.4609 74.4862H31.0051V74.2435H32.4609V74.4862ZM29.5492 74.4862H28.0934V74.2435H29.5492V74.4862ZM26.6374 74.4862H25.1815V74.2435H26.6374V74.4862ZM23.7255 74.4862H22.2691V74.2435H23.725L23.7255 74.4862ZM20.8138 74.4862H19.3578V74.2435H20.8138V74.4862ZM17.9021 74.4862H16.4462V74.2435H17.9021V74.4862ZM14.9902 74.4862H13.5342V74.2435H14.9902V74.4862ZM12.0785 74.4862H10.6225V74.2435H12.0785V74.4862ZM9.16674 74.4862H7.71172V74.2435H9.16769L9.16674 74.4862ZM6.25484 74.4862H5.29074V73.7516H5.53344V74.2433H6.25484V74.4862ZM5.53344 72.2957H5.29074V70.8397H5.53344V72.2957ZM55.8759 71.36H55.6332V69.904H55.8759V71.36ZM5.53344 69.384H5.29074V67.928H5.53344V69.384ZM55.8759 68.4482H55.6332V66.9923H55.8759V68.4482ZM5.53344 66.4723H5.29074V65.0163H5.53344V66.4723ZM55.8759 65.5366H55.6332V64.0806H55.8759V65.5366ZM5.53344 63.5606H5.29074V62.6648H6.09358V62.9075H5.53344V63.5606ZM55.5932 62.9072H54.1375V62.6645H55.5932V62.9072ZM52.6816 62.9072H51.2256V62.6645H52.6816V62.9072ZM49.7698 62.9072H48.3141V62.6645H49.7698V62.9072ZM46.8579 62.9072H45.402V62.6645H46.8579V62.9072ZM43.9462 62.9072H42.4902V62.6645H43.9462V62.9072ZM41.0343 62.9072H39.5785V62.6645H41.0343V62.9072ZM38.1226 62.9072H36.6666V62.6645H38.1226V62.9072ZM35.2109 62.9072H33.7549V62.6645H35.2109V62.9072ZM32.2989 62.9072H30.8429V62.6645H32.2989V62.9072ZM29.3869 62.9072H27.9313V62.6645H29.3869V62.9072ZM26.4753 62.9072H25.0195V62.6645H26.4753V62.9072ZM23.5636 62.9072H22.1076V62.6645H23.5636V62.9072ZM20.6517 62.9072H19.1959V62.6645H20.6517V62.9072ZM17.7399 62.9072H16.284V62.6645H17.7399V62.9072ZM14.8282 62.9072H13.3722V62.6645H14.8282V62.9072ZM11.9163 62.9072H10.4603V62.6645H11.9163V62.9072ZM9.00458 62.9072H7.55024V62.6645H9.00621L9.00458 62.9072Z" fill="#0F4AB2"/>
<path d="M36.351 77.1725H25.0726C24.5536 77.1725 24.1329 77.5932 24.1329 78.1122V89.3906C24.1329 89.9095 24.5536 90.3302 25.0726 90.3302H36.351C36.8699 90.3302 37.2906 89.9095 37.2906 89.3906V78.1122C37.2906 77.5932 36.8699 77.1725 36.351 77.1725Z" fill="#FDD048"/>
<path d="M55.0848 77.1725H43.8064C43.2874 77.1725 42.8667 77.5932 42.8667 78.1122V89.3906C42.8667 89.9095 43.2874 90.3302 43.8064 90.3302H55.0848C55.6037 90.3302 56.0244 89.9095 56.0244 89.3906V78.1122C56.0244 77.5932 55.6037 77.1725 55.0848 77.1725Z" fill="#FDD9DE"/>
<path d="M17.6174 77.1725H6.33903C5.82007 77.1725 5.39938 77.5932 5.39938 78.1122V89.3906C5.39938 89.9095 5.82007 90.3302 6.33903 90.3302H17.6174C18.1364 90.3302 18.5571 89.9095 18.5571 89.3906V78.1122C18.5571 77.5932 18.1364 77.1725 17.6174 77.1725Z" fill="#0F4AB2"/>
</svg>
